<svg xmlns="http://www.w3.org/2000/svg" width="144" height="144" viewBox="0 0 144 144">
  <defs>
    <linearGradient id="g" x1="0" y1="0" x2="1" y2="1">
      <stop offset="0" stop-color="#0E7490" stop-opacity="0.22"/>
      <stop offset="1" stop-color="#22D3EE" stop-opacity="0.06"/>
    </linearGradient>
  </defs>
  <rect x="6" y="6" width="132" height="132" rx="28" fill="url(#g)" stroke="#E6EAF0"/>
  <g fill="none" stroke="#0F4C5C" stroke-width="6" stroke-linecap="round" stroke-linejoin="round">
    <path d="M44 78c0-16 14-28 30-28s26 8 26 20-12 22-28 24"/>
    <path d="M50 70c-6 2-10 8-10 14 0 10 10 18 22 18"/>
    <path d="M84 54c6-10 18-12 24-6"/>
    <path d="M96 50c10 10 6 28-10 34"/>
    <path d="M104 96c14 2 20 10 20 20"/>
    <circle cx="78" cy="66" r="3" fill="#0F4C5C" stroke="none"/>
  </g>
  <text x="72" y="126" text-anchor="middle" font-size="14" fill="#0B1220" opacity="0.8" font-family="system-ui, -apple-system, Segoe UI, Roboto, Arial">Rodents</text>
</svg>

