<svg xmlns="http://www.w3.org/2000/svg" width="960" height="540" viewBox="0 0 960 540">
  <defs>
    <linearGradient id="bg" x1="0" y1="0" x2="1" y2="1">
      <stop offset="0" stop-color="#ECFEFF"/>
      <stop offset="1" stop-color="#F1F5F9"/>
    </linearGradient>
    <linearGradient id="accent" x1="0" y1="0" x2="1" y2="1">
      <stop offset="0" stop-color="#0E7490"/>
      <stop offset="1" stop-color="#22D3EE"/>
    </linearGradient>
  </defs>
  <rect width="960" height="540" rx="28" fill="url(#bg)"/>
  <rect x="48" y="64" width="864" height="412" rx="22" fill="#FFFFFF" stroke="#E6EAF0"/>
  <rect x="96" y="120" width="300" height="220" rx="18" fill="url(#accent)" opacity="0.12"/>
  <rect x="432" y="120" width="432" height="18" rx="9" fill="#0B1220" opacity="0.12"/>
  <rect x="432" y="156" width="360" height="14" rx="7" fill="#0B1220" opacity="0.08"/>
  <rect x="432" y="184" width="320" height="14" rx="7" fill="#0B1220" opacity="0.08"/>
  <rect x="432" y="212" width="380" height="14" rx="7" fill="#0B1220" opacity="0.08"/>
  <rect x="432" y="240" width="300" height="14" rx="7" fill="#0B1220" opacity="0.08"/>
  <path d="M172 244c0-28 18-50 34-50s34 22 34 50-18 50-34 50-34-22-34-50Z" fill="none" stroke="#0F4C5C" stroke-width="10" stroke-linecap="round" stroke-linejoin="round"/>
  <text x="96" y="420" font-size="26" fill="#0B1220" font-family="system-ui, -apple-system, Segoe UI, Roboto, Arial" opacity="0.85">Example: Placement &amp; follow-up</text>
</svg>
