<svg xmlns="http://www.w3.org/2000/svg" width="960" height="540" viewBox="0 0 960 540">
  <defs>
    <linearGradient id="bg" x1="0" y1="0" x2="1" y2="1">
      <stop offset="0" stop-color="#ECFEFF"/>
      <stop offset="1" stop-color="#F8FAFC"/>
    </linearGradient>
    <linearGradient id="accent" x1="0" y1="0" x2="1" y2="1">
      <stop offset="0" stop-color="#0E7490"/>
      <stop offset="1" stop-color="#0F4C5C"/>
    </linearGradient>
  </defs>
  <rect x="0" y="0" width="960" height="540" rx="28" fill="url(#bg)"/>
  <rect x="48" y="64" width="864" height="412" rx="22" fill="#FFFFFF" stroke="#E6EAF0"/>
  <rect x="88" y="110" width="380" height="18" rx="9" fill="#0B1220" opacity="0.12"/>
  <rect x="88" y="146" width="520" height="14" rx="7" fill="#0B1220" opacity="0.08"/>
  <rect x="88" y="174" width="480" height="14" rx="7" fill="#0B1220" opacity="0.08"/>
  <rect x="88" y="202" width="360" height="14" rx="7" fill="#0B1220" opacity="0.08"/>
  <circle cx="770" cy="210" r="92" fill="url(#accent)" opacity="0.16"/>
  <circle cx="770" cy="210" r="54" fill="url(#accent)" opacity="0.24"/>
  <path d="M730 220c0-34 22-62 40-62s40 28 40 62-22 62-40 62-40-28-40-62Z" fill="none" stroke="#0F4C5C" stroke-width="10" stroke-linecap="round" stroke-linejoin="round"/>
  <text x="96" y="420" font-size="26" fill="#0B1220" font-family="system-ui, -apple-system, Segoe UI, Roboto, Arial" opacity="0.85">Example: Kitchen inspection &amp; monitoring</text>
</svg>
